<svg xmlns="http://www.w3.org/2000/svg" width="64" height="64" viewBox="0 0 64 64" fill="none">
  <path d="M30 10V4C30 3.46957 30.2107 2.96086 30.5858 2.58579C30.9609 2.21071 31.4696 2 32 2C32.5304 2 33.0391 2.21071 33.4142 2.58579C33.7893 2.96086 34 3.46957 34 4V10C34 10.5304 33.7893 11.0391 33.4142 11.4142C33.0391 11.7893 32.5304 12 32 12C31.4696 12 30.9609 11.7893 30.5858 11.4142C30.2107 11.0391 30 10.5304 30 10ZM48 32C48 35.1645 47.0616 38.2579 45.3035 40.8891C43.5454 43.5203 41.0466 45.5711 38.1229 46.7821C35.1993 47.9931 31.9823 48.3099 28.8786 47.6926C25.7749 47.0752 22.9239 45.5513 20.6863 43.3137C18.4487 41.0761 16.9248 38.2251 16.3074 35.1214C15.6901 32.0177 16.0069 28.8007 17.2179 25.8771C18.4289 22.9534 20.4797 20.4546 23.1109 18.6965C25.7421 16.9384 28.8355 16 32 16C36.242 16.0046 40.309 17.6918 43.3086 20.6914C46.3082 23.691 47.9954 27.758 48 32ZM44 32C44 29.6266 43.2962 27.3065 41.9776 25.3332C40.6591 23.3598 38.7849 21.8217 36.5922 20.9134C34.3995 20.0052 31.9867 19.7676 29.6589 20.2306C27.3311 20.6936 25.1929 21.8365 23.5147 23.5147C21.8365 25.1929 20.6936 27.3311 20.2306 29.6589C19.7676 31.9867 20.0052 34.3995 20.9134 36.5922C21.8217 38.7849 23.3598 40.6591 25.3332 41.9776C27.3065 43.2962 29.6266 44 32 44C35.1816 43.9967 38.2319 42.7313 40.4816 40.4816C42.7313 38.2319 43.9967 35.1816 44 32ZM14.585 17.415C14.9603 17.7903 15.4693 18.0011 16 18.0011C16.5307 18.0011 17.0397 17.7903 17.415 17.415C17.7903 17.0397 18.0011 16.5307 18.0011 16C18.0011 15.4693 17.7903 14.9603 17.415 14.585L13.415 10.585C13.0397 10.2097 12.5307 9.99889 12 9.99889C11.4693 9.99889 10.9603 10.2097 10.585 10.585C10.2097 10.9603 9.99889 11.4693 9.99889 12C9.99889 12.5307 10.2097 13.0397 10.585 13.415L14.585 17.415ZM14.585 46.585L10.585 50.585C10.2097 50.9603 9.99889 51.4693 9.99889 52C9.99889 52.5307 10.2097 53.0397 10.585 53.415C10.9603 53.7903 11.4693 54.0011 12 54.0011C12.5307 54.0011 13.0397 53.7903 13.415 53.415L17.415 49.415C17.6008 49.2292 17.7482 49.0086 17.8488 48.7658C17.9494 48.523 18.0011 48.2628 18.0011 48C18.0011 47.7372 17.9494 47.477 17.8488 47.2342C17.7482 46.9914 17.6008 46.7708 17.415 46.585C17.2292 46.3992 17.0086 46.2518 16.7658 46.1512C16.523 46.0506 16.2628 45.9989 16 45.9989C15.7372 45.9989 15.477 46.0506 15.2342 46.1512C14.9914 46.2518 14.7708 46.3992 14.585 46.585ZM48 18C48.2627 18.0002 48.5229 17.9486 48.7657 17.8483C49.0085 17.7479 49.2291 17.6007 49.415 17.415L53.415 13.415C53.7903 13.0397 54.0011 12.5307 54.0011 12C54.0011 11.4693 53.7903 10.9603 53.415 10.585C53.0397 10.2097 52.5307 9.99889 52 9.99889C51.4693 9.99889 50.9603 10.2097 50.585 10.585L46.585 14.585C46.305 14.8647 46.1142 15.2212 46.0369 15.6094C45.9596 15.9976 45.9993 16.3999 46.1508 16.7656C46.3023 17.1312 46.5588 17.4437 46.888 17.6634C47.2172 17.8832 47.6042 18.0003 48 18ZM49.415 46.585C49.0397 46.2097 48.5307 45.9989 48 45.9989C47.4693 45.9989 46.9603 46.2097 46.585 46.585C46.2097 46.9603 45.9989 47.4693 45.9989 48C45.9989 48.5307 46.2097 49.0397 46.585 49.415L50.585 53.415C50.7708 53.6008 50.9914 53.7482 51.2342 53.8488C51.477 53.9494 51.7372 54.0011 52 54.0011C52.2628 54.0011 52.523 53.9494 52.7658 53.8488C53.0086 53.7482 53.2292 53.6008 53.415 53.415C53.6008 53.2292 53.7482 53.0086 53.8488 52.7658C53.9494 52.523 54.0011 52.2628 54.0011 52C54.0011 51.7372 53.9494 51.477 53.8488 51.2342C53.7482 50.9914 53.6008 50.7708 53.415 50.585L49.415 46.585ZM12 32C12 31.4696 11.7893 30.9609 11.4142 30.5858C11.0391 30.2107 10.5304 30 10 30H4C3.46957 30 2.96086 30.2107 2.58579 30.5858C2.21071 30.9609 2 31.4696 2 32C2 32.5304 2.21071 33.0391 2.58579 33.4142C2.96086 33.7893 3.46957 34 4 34H10C10.5304 34 11.0391 33.7893 11.4142 33.4142C11.7893 33.0391 12 32.5304 12 32ZM32 52C31.4696 52 30.9609 52.2107 30.5858 52.5858C30.2107 52.9609 30 53.4696 30 54V60C30 60.5304 30.2107 61.0391 30.5858 61.4142C30.9609 61.7893 31.4696 62 32 62C32.5304 62 33.0391 61.7893 33.4142 61.4142C33.7893 61.0391 34 60.5304 34 60V54C34 53.4696 33.7893 52.9609 33.4142 52.5858C33.0391 52.2107 32.5304 52 32 52ZM60 30H54C53.4696 30 52.9609 30.2107 52.5858 30.5858C52.2107 30.9609 52 31.4696 52 32C52 32.5304 52.2107 33.0391 52.5858 33.4142C52.9609 33.7893 53.4696 34 54 34H60C60.5304 34 61.0391 33.7893 61.4142 33.4142C61.7893 33.0391 62 32.5304 62 32C62 31.4696 61.7893 30.9609 61.4142 30.5858C61.0391 30.2107 60.5304 30 60 30Z" fill="white"/>
</svg>