<svg width="65" height="65" viewBox="0 0 65 65" fill="none" xmlns="http://www.w3.org/2000/svg">
<path d="M40.625 59.5833V48.75C41.0018 45.3572 40.0289 41.9524 37.9166 39.2708C46.0416 39.2708 54.1666 33.8541 54.1666 24.375C54.3833 20.9895 53.4354 17.6583 51.4583 14.8958C52.2166 11.7812 52.2166 8.53121 51.4583 5.41663C51.4583 5.41663 48.75 5.41663 43.3333 9.47913C36.1833 8.12496 28.8166 8.12496 21.6666 9.47913C16.25 5.41663 13.5416 5.41663 13.5416 5.41663C12.7291 8.53121 12.7291 11.7812 13.5416 14.8958C11.5696 17.6471 10.6125 20.9971 10.8333 24.375C10.8333 33.8541 18.9583 39.2708 27.0833 39.2708C26.0271 40.5979 25.2416 42.1145 24.7812 43.7395C24.3208 45.3645 24.1854 47.0708 24.375 48.75V59.5833" stroke="white" stroke-width="5.41667" stroke-linecap="round" stroke-linejoin="round"/>
<path d="M24.375 48.75C12.1604 54.1667 10.8334 43.3334 5.41669 43.3334" stroke="white" stroke-width="5.41667" stroke-linecap="round" stroke-linejoin="round"/>
</svg>
